<svg xmlns="http://www.w3.org/2000/svg" version="1.1" viewBox="-5.0 -10.0 110.0 135.0">
 <path d="m63.68 81.77c-5.2812-1.4883-10.031 0.29297-10.031 0.29297-0.51953 0.19141-0.78125 0.76953-0.58984 1.2852 0.19922 0.51562 0.76953 0.77734 1.2891 0.58594 0 0 5.3203-1.9883 10.621 0.42969 3.5898 1.6406 7.1094 5.3203 9.0586 12.883 0.14062 0.53516 0.67969 0.85547 1.2188 0.71875 0.53125-0.13672 0.85938-0.68359 0.71875-1.2188-2.1406-8.3047-6.1094-12.301-10.051-14.145-0.33984-1.4609-2.2617-9.8672-3.2617-16.492-0.26953-3.293 0.96094-6.5352 3.3516-8.8164 0.60156-0.57031 1.1797-1.168 1.7305-1.7852 0.37109-0.41016 0.33984-1.043-0.070313-1.4141-0.41016-0.36719-1.0391-0.33594-1.4102 0.074219-0.51953 0.57812-1.0703 1.1367-1.6289 1.6758h-0.011719c-2.8281 2.707-4.2891 6.5547-3.9492 10.461 0 0.019531 0 0.042968 0.011719 0.0625 0.83984 5.5742 2.3281 12.414 3 15.398zm18.32-71.895v10.711l-3.3711 3.3672c-0.10156-0.035156-0.21094-0.074219-0.32031-0.10938-0.51953-0.17188-1.0898 0.11328-1.2617 0.63672-0.17188 0.52344 0.10938 1.0898 0.64062 1.2617 5.9844 1.9727 10.312 7.6133 10.312 14.258 0 8.2773-6.7188 15-14.988 15-0.64062 0-1.2695-0.039062-1.8906-0.11719-0.53906-0.070312-1.0391 0.32031-1.1094 0.86719-0.070313 0.54688 0.32031 1.0469 0.87109 1.1172 0.6875 0.085937 1.3984 0.13281 2.1172 0.13281v25c0 0.26562 0.10938 0.51953 0.28906 0.70703l9.2617 9.2617c-0.35156 0.59375-0.55078 1.2891-0.55078 2.0312 0 2.207 1.7891 4 4 4s4-1.793 4-4-1.7891-4-4-4c-0.73828 0-1.4414 0.20312-2.0312 0.55469l-8.9688-8.9688v-24.703c0.98828-0.11719 1.9492-0.31641 2.8789-0.59375l4.1211 4.125v14.586c0 0.26562 0.10938 0.51953 0.28906 0.70703l8.2617 8.2617c-0.35156 0.59375-0.55078 1.2891-0.55078 2.0312 0 2.207 1.7891 4 4 4s4-1.793 4-4-1.7891-4-4-4c-0.73828 0-1.4414 0.20312-2.0312 0.55469l-7.9688-7.9688v-14.586c0-0.26562-0.10938-0.51953-0.28906-0.70703l-3.7695-3.7695c1.1602-0.51953 2.25-1.168 3.2617-1.9258 0.03125 0.039063 0.058594 0.074219 0.089844 0.10938l3.707 3.707v7.5859c0 0.26562 0.10938 0.51953 0.28906 0.70703l3.2617 3.2617c-0.35156 0.59375-0.55078 1.2891-0.55078 2.0312 0 2.207 1.7891 4 4 4s4-1.793 4-4-1.7891-4-4-4c-0.73828 0-1.4414 0.20312-2.0312 0.55469l-2.9688-2.9688v-7.5859c0-0.26562-0.10938-0.51953-0.28906-0.70703l-3.9883-3.9844c0.89062-0.84375 1.6797-1.7852 2.3711-2.8008l3.4609 3.4609c-0.35547 0.59375-0.55469 1.2891-0.55469 2.0312 0 2.207 1.7891 4 4 4s4-1.793 4-4-1.7891-4-4-4c-0.73828 0-1.4414 0.20312-2.0312 0.55469l-3.8281-3.8281c1.1875-2.3164 1.8594-4.9453 1.8594-7.7266 0-2.5156-0.55078-4.9062-1.5312-7.0547l3.5-3.5c0.58984 0.35156 1.293 0.55469 2.0312 0.55469 2.2109 0 4-1.793 4-4s-1.7891-4-4-4-4 1.793-4 4c0 0.74219 0.19922 1.4375 0.55078 2.0312l-3.0703 3.0703c-0.64062-1.0508-1.4023-2.0273-2.2617-2.9102l3.4883-3.4844c0.18359-0.1875 0.29297-0.44141 0.29297-0.70703v-7.5859l2.9688-2.9688c0.58984 0.35156 1.293 0.55469 2.0312 0.55469 2.2109 0 4-1.793 4-4s-1.7891-4-4-4-4 1.793-4 4c0 0.74219 0.19922 1.4375 0.55078 2.0312l-3.2617 3.2617c-0.17969 0.1875-0.28906 0.44141-0.28906 0.70703v7.5859l-3.25 3.2461c-0.96094-0.78906-2.0117-1.4727-3.1289-2.0352l3.0898-3.0938c0.17969-0.18359 0.28906-0.4375 0.28906-0.70312v-11.125c1.7188-0.44531 3-2.0117 3-3.875 0-2.207-1.7891-4-4-4s-4 1.793-4 4c0 1.8633 1.2812 3.4297 3 3.875zm-54.578 58.125c3.2344 0 6.0039 2.4375 6.3516 5.6523l1.168 10.82c-1.9258 1.1797-8.5625 5.4102-15.609 11.785-0.41016 0.37109-0.44141 1.0039-0.070312 1.4102 0.37109 0.41016 1.0039 0.44141 1.4102 0.070312 8.1992-7.418 15.832-11.879 15.832-11.879 0.33984-0.19922 0.53125-0.57812 0.48828-0.97266 0 0-0.67969-6.3086-1.2344-11.453-0.33594-3.1172-2.3633-5.6797-5.1094-6.8125 1.8047-0.79297 3.4844-1.5938 4.9805-2.4648 4.2188-2.4492 7.0312-5.4453 7.4219-10.078 0.050781-0.55078-0.35938-1.0352-0.91016-1.082s-1.0312 0.35938-1.0781 0.91016c-0.32812 3.9531-2.8359 6.4297-6.4336 8.5195-3.8828 2.2539-9.0117 4.0352-14.352 6.4336-0.003906 0-0.003906 0-0.003906 0.003906-1.6406 0.75-3.4727 1.1367-5.2734 1.1367-1.1914 0-2.1484-0.90625-2.2773-2.0898l-0.66797-6.0195c-0.023438-0.22656-0.125-0.4375-0.28516-0.59766l-1.6133-1.6133c0.17969-0.73828 0.39062-1.3125 0.54297-1.6875 0.87891 0.39453 1.9336 0.75391 3.1758 0.98828 0.54297 0.10547 1.0664-0.25391 1.168-0.79688 0.10547-0.54297-0.25391-1.0664-0.79688-1.168-2.6484-0.5-4.2773-1.6406-4.9922-2.2539 0.83984-2.1094 0.80469-3.7773 0.80469-3.7773-0.007813-0.41016-0.26562-0.77734-0.64844-0.92188-2.1445-0.80078-3.9375-2.1836-4.9102-3.0312 6.7422-5.8984 9.4609-11.598 9.4609-11.598 0.0625-0.13672 0.097656-0.28516 0.097656-0.43359v-6c0-16.516 13.484-25 30.004-25 14.988 0 25.629 8.4453 28.879 21.246 0.14062 0.53516 0.67969 0.85938 1.2188 0.72266 0.53125-0.13672 0.85938-0.67969 0.71875-1.2148-3.4805-13.68-14.801-22.754-30.82-22.754-17.707 0-32 9.2969-32 27v5.7617c-0.55469 1.0586-3.4688 6.2695-9.6992 11.473-0.21484 0.17969-0.34375 0.4375-0.35938 0.71484-0.015625 0.27734 0.085938 0.54688 0.27734 0.74609 0 0 2.4219 2.5156 5.7305 3.9609-0.078124 0.64844-0.29297 1.7227-0.85547 2.918-0.16797 0.35547-0.11328 0.77344 0.14062 1.0742 0 0 0.52734 0.63672 1.6406 1.3789-0.23828 0.54297-0.60156 1.4961-0.85938 2.7773-0.066407 0.32812 0.035156 0.66797 0.27344 0.90625l1.7539 1.7539 0.62891 5.6719c0.24609 2.207 2.0469 3.8711 4.2656 3.8711 2.082 0 4.1992-0.44531 6.0938-1.3086 2.1641-0.97266 4.2969-1.8477 6.3242-2.6914zm57.156 24.598c-0.35938 0.35938-0.57812 0.85547-0.57812 1.4023 0 1.1055 0.89844 2 2 2s2-0.89453 2-2-0.89844-2-2-2c-0.55078 0-1.0391 0.21875-1.3984 0.57422-0.011718 0.003906-0.011718 0.007812-0.011718 0.011719-0.011719 0.003906-0.011719 0.007812-0.011719 0.011718zm9.4219-8.5977c1.1016 0 2 0.89453 2 2s-0.89844 2-2 2-2-0.89453-2-2 0.89844-2 2-2zm0-15c1.1016 0 2 0.89453 2 2s-0.89844 2-2 2-2-0.89453-2-2 0.89844-2 2-2zm0-16c1.1016 0 2 0.89453 2 2s-0.89844 2-2 2-2-0.89453-2-2 0.89844-2 2-2zm-22.852-0.011719c0.42187 0.066407 0.83984-0.14453 1.0391-0.51953l0.75-1.4102c0.71094 0.011718 1.4297-0.042969 2.1406-0.17188l0.96094 1.2734c0.26172 0.33984 0.69922 0.48047 1.1094 0.34766 1.3086-0.42578 2.5508-1.0586 3.6719-1.8789 0.33984-0.25 0.48828-0.69141 0.35938-1.1016l-0.46094-1.5273c0.51172-0.49609 0.98047-1.043 1.3906-1.6328l1.5781 0.21875c0.42188 0.058593 0.83984-0.15625 1.0312-0.53516 0.62891-1.2344 1.0586-2.5586 1.2695-3.9258 0.058594-0.42188-0.14062-0.83594-0.51953-1.0352l-1.4102-0.75c0.011718-0.71484-0.050782-1.4336-0.17188-2.1367l1.2695-0.96484c0.33984-0.25781 0.48047-0.69922 0.35156-1.1055-0.42969-1.3164-1.0586-2.5547-1.8789-3.6719-0.25-0.34375-0.69141-0.48828-1.1016-0.36719l-1.5273 0.47266c-0.48828-0.51562-1.0391-0.98047-1.6289-1.3906l0.21875-1.582c0.058594-0.42188-0.16016-0.83594-0.53125-1.0273-1.2383-0.62891-2.5586-1.0586-3.9297-1.2695-0.42188-0.066406-0.83984 0.14453-1.0391 0.51953l-0.75 1.4141c-0.71094-0.015625-1.4297 0.042969-2.1289 0.17188l-0.96875-1.2773c-0.25-0.33984-0.69922-0.48047-1.1016-0.34766-1.3203 0.42578-2.5586 1.0625-3.6797 1.8789-0.33984 0.25391-0.48828 0.69141-0.35938 1.1016l0.46875 1.5273c-0.51953 0.49609-0.98828 1.043-1.3984 1.6328 0.011719 0-1.5781-0.21875-1.5781-0.21875-0.42188-0.058594-0.82812 0.15625-1.0312 0.53516-0.62891 1.2305-1.0508 2.5586-1.2695 3.9258-0.058594 0.42188 0.14844 0.83594 0.51953 1.0352l1.4219 0.75c-0.019531 0.71484 0.039063 1.4336 0.17188 2.1367 0 0-1.2812 0.96484-1.2812 0.96484-0.33984 0.25781-0.48047 0.69922-0.35156 1.1055 0.42969 1.3164 1.0586 2.5586 1.8789 3.6758 0.25 0.34375 0.69141 0.48828 1.1016 0.36328l1.5312-0.46875c0.5 0.51562 1.0391 0.98047 1.6289 1.3906l-0.21875 1.5859c-0.058593 0.42188 0.16016 0.83594 0.53906 1.0273 1.2305 0.62891 2.5586 1.0586 3.9219 1.2695zm-0.37891-2.1055c-0.69141-0.15234-1.3516-0.36719-2-0.64453l0.21094-1.4844c0.058593-0.39453-0.12891-0.78516-0.46875-0.99219-0.8125-0.49219-1.543-1.1133-2.1523-1.8359-0.25781-0.30469-0.67969-0.42188-1.0586-0.30859l-1.4297 0.4375c-0.37891-0.58984-0.69922-1.2148-0.96094-1.8633l1.1992-0.90234c0.32031-0.24219 0.46094-0.64844 0.37109-1.0352-0.23047-0.92188-0.30078-1.875-0.23047-2.8203 0.03125-0.39844-0.17188-0.77734-0.53125-0.96484l-1.3203-0.70312c0.14844-0.68359 0.37109-1.3516 0.64844-1.9922l1.4805 0.20703c0.39062 0.054687 0.78125-0.12891 0.98828-0.47266 0.5-0.8125 1.1094-1.5391 1.8398-2.1523 0.30078-0.25781 0.42188-0.67188 0.30078-1.0547l-0.44141-1.4336c0.60156-0.37891 1.2188-0.69531 1.8711-0.95313l0.89844 1.1953c0.25 0.31641 0.64844 0.46484 1.0391 0.36719 0.92187-0.22656 1.8711-0.30078 2.8203-0.22656 0.39844 0.03125 0.76953-0.17578 0.96094-0.52734l0.71484-1.3242c0.67969 0.15234 1.3516 0.36719 1.9883 0.64453l-0.21094 1.4844c-0.050781 0.39453 0.12891 0.78516 0.46875 0.99219 0.82031 0.49219 1.5391 1.1133 2.1602 1.8359 0.26172 0.30469 0.67188 0.42578 1.0508 0.30859l1.4297-0.4375c0.37891 0.58984 0.69922 1.2148 0.96094 1.8633l-1.1992 0.90234c-0.30859 0.24219-0.46094 0.64844-0.35938 1.0352 0.21875 0.92188 0.30078 1.875 0.21875 2.8203-0.03125 0.39844 0.17969 0.77344 0.53125 0.96094l1.3203 0.70312c-0.14844 0.68359-0.35938 1.3516-0.64062 1.9922l-1.4883-0.20703c-0.39062-0.054687-0.78125 0.13281-0.98828 0.47266-0.48828 0.8125-1.1094 1.5391-1.8281 2.1523-0.30859 0.25781-0.42969 0.67188-0.30859 1.0547l0.44141 1.4336c-0.58984 0.375-1.2188 0.69531-1.8711 0.95312l-0.89844-1.1953c-0.23828-0.31641-0.64844-0.46484-1.0391-0.36719-0.92187 0.22656-1.8711 0.30078-2.8203 0.22656-0.39062-0.03125-0.76953 0.17578-0.96094 0.52734zm-23.602-2.1367c0.42188-0.066406 0.76172-0.39453 0.82812-0.8125l0.5-2.8516c1.2891-0.35938 2.5312-0.87109 3.6914-1.5273l2.3711 1.6602c0.35156 0.24219 0.80859 0.23828 1.1602-0.007813 1.7188-1.2461 3.2383-2.7617 4.4883-4.4883 0.25-0.34375 0.25-0.80859 0.011719-1.1602l-1.6602-2.3711c0.64844-1.1641 1.1602-2.3984 1.5195-3.6836 0 0 2.8516-0.50391 2.8516-0.50391 0.42187-0.074219 0.75-0.40625 0.82031-0.82422 0.32812-2.1016 0.32812-4.2422 0-6.3477-0.070312-0.42188-0.39844-0.75391-0.82031-0.82422l-2.8516-0.50391c-0.35938-1.2852-0.87109-2.5234-1.5195-3.6836l1.6602-2.3711c0.23828-0.34766 0.23828-0.8125-0.011719-1.1602-1.25-1.7266-2.7695-3.2383-4.4883-4.4883-0.35156-0.25-0.80859-0.25391-1.1602-0.007813l-2.3711 1.6562c-1.1719-0.65234-2.3984-1.1641-3.6914-1.5273l-0.5-2.8516c-0.070313-0.41797-0.41016-0.74609-0.82812-0.8125-2.1016-0.33594-4.2383-0.33594-6.3398 0-0.42188 0.066406-0.75 0.39453-0.82812 0.8125l-0.50391 2.8516c-1.2852 0.35938-2.5234 0.87109-3.6836 1.5273l-2.3711-1.6602c-0.34766-0.24219-0.8125-0.23828-1.1602 0.007813-1.7266 1.2461-3.2383 2.7617-4.4883 4.4883-0.25 0.34375-0.25391 0.80859-0.007813 1.1602l1.6562 2.3711c-0.65234 1.1641-1.1641 2.3984-1.5273 3.6836 0 0-2.8516 0.50391-2.8516 0.50391-0.41797 0.074219-0.74609 0.40625-0.8125 0.82422-0.33594 2.1016-0.33594 4.2422 0 6.3477 0.066406 0.42188 0.39453 0.75391 0.8125 0.82422l2.8516 0.50391c0.35938 1.2852 0.87109 2.5234 1.5273 3.6836l-1.6602 2.3711c-0.24219 0.34766-0.23828 0.8125 0.007812 1.1602 1.2461 1.7266 2.7617 3.2383 4.4883 4.4883 0.34375 0.25 0.80859 0.25391 1.1602 0.007813l2.3711-1.6562c1.1641 0.65234 2.3984 1.1641 3.6836 1.5273l0.50391 2.8516c0.078125 0.41797 0.41016 0.74609 0.82812 0.8125 2.1016 0.33594 4.2383 0.33594 6.3398 0zm-1.0078-1.875c-1.4414 0.17188-2.8789 0.17188-4.3203 0l-0.48828-2.7656c-0.070312-0.39453-0.35937-0.70703-0.75-0.80078-1.5234-0.36328-2.9766-0.96484-4.3086-1.7852-0.33984-0.21094-0.76953-0.19531-1.0977 0.03125l-2.3047 1.6094c-1.1367-0.89062-2.1602-1.9141-3.0508-3.0508l1.6094-2.3047c0.22656-0.32813 0.24219-0.75781 0.03125-1.0977-0.82031-1.3281-1.4219-2.7852-1.7852-4.3086-0.089843-0.38672-0.40625-0.68359-0.79687-0.75391l-2.7695-0.48828c-0.17188-1.4336-0.17188-2.8828 0-4.3125l2.7656-0.48828c0.39453-0.070313 0.70703-0.36719 0.80078-0.75391 0.36328-1.5234 0.96484-2.9766 1.7852-4.3086 0.21094-0.33984 0.19531-0.76953-0.03125-1.0977l-1.6094-2.3047c0.89062-1.1367 1.9141-2.1602 3.0508-3.0508l2.3047 1.6094c0.32813 0.22656 0.75781 0.24219 1.0977 0.03125 1.332-0.82031 2.7852-1.4258 4.3086-1.7852 0.39063-0.09375 0.67969-0.40625 0.75-0.80078l0.48828-2.7656c1.4414-0.17188 2.8789-0.17188 4.3203 0l0.48828 2.7656c0.070312 0.39453 0.35937 0.70703 0.75 0.80078 1.5195 0.36328 2.9805 0.96484 4.3086 1.7852 0.33984 0.21094 0.76953 0.19531 1.1016-0.03125l2.3008-1.6094c1.1406 0.89062 2.1602 1.9141 3.0508 3.0508l-1.6094 2.3047c-0.23047 0.32813-0.23828 0.75781-0.03125 1.0977 0.82031 1.332 1.4219 2.7852 1.7812 4.3086 0.10156 0.38672 0.41016 0.68359 0.80078 0.75391l2.7695 0.48828c0.17188 1.4336 0.17188 2.8828 0 4.3125 0 0-2.7695 0.48828-2.7695 0.48828-0.39062 0.070313-0.69922 0.36719-0.80078 0.75391-0.35938 1.5234-0.96094 2.9766-1.7812 4.3086-0.21094 0.33984-0.19922 0.76953 0.03125 1.0977l1.6094 2.3047c-0.89062 1.1367-1.9102 2.1602-3.0508 3.0508l-2.3008-1.6094c-0.32812-0.22656-0.76172-0.24219-1.1016-0.03125-1.3281 0.82031-2.7891 1.4258-4.3086 1.7852-0.39063 0.09375-0.67969 0.40625-0.75 0.80078zm25.398-1.8398c2.6992 0.87109 5.6016-0.60938 6.4688-3.3086 0.87109-2.6992-0.60938-5.5977-3.3086-6.4727-2.6992-0.87109-5.6016 0.60938-6.4688 3.3086-0.87109 2.6992 0.60938 5.6016 3.3086 6.4727zm0.60938-1.9023c-1.6406-0.53125-2.5508-2.3047-2.0195-3.9531 0.53906-1.6484 2.3086-2.5547 3.9609-2.0234 1.6484 0.53516 2.5508 2.3047 2.0195 3.9531-0.53125 1.6484-2.3086 2.5547-3.9609 2.0195zm-28.168-6.5039c4.2109 0 7.6289-3.418 7.6289-7.625 0-4.2109-3.4219-7.625-7.6289-7.625-4.2109 0-7.625 3.418-7.625 7.625 0 4.2109 3.418 7.625 7.625 7.625zm0-2c-3.1094 0-5.625-2.5195-5.625-5.625s2.5156-5.625 5.625-5.625 5.6289 2.5195 5.6289 5.625-2.5195 5.625-5.6289 5.625zm50-6.625c-1.1016 0-2-0.89453-2-2s0.89844-2 2-2 2 0.89453 2 2-0.89844 2-2 2zm0-16c-1.1016 0-2-0.89453-2-2s0.89844-2 2-2 2 0.89453 2 2-0.89844 2-2 2zm-11-4c-1.1016 0-2-0.89453-2-2s0.89844-2 2-2 2 0.89453 2 2-0.89844 2-2 2z" fill-rule="evenodd"/>
<text x="0.0" y="117.5" font-size="5.0" font-weight="bold" font-family="Arbeit Regular, Helvetica, Arial-Unicode, Arial, Sans-serif" fill="#000000">Created by Fahmi Hidayat</text><text x="0.0" y="122.5" font-size="5.0" font-weight="bold" font-family="Arbeit Regular, Helvetica, Arial-Unicode, Arial, Sans-serif" fill="#000000">from Noun Project</text></svg>