<svg xmlns="http://www.w3.org/2000/svg" version="1.1" viewBox="-5.0 -10.0 110.0 135.0">
 <path d="m89.035 50.453h-1.5312v-20.82c1.918-0.64453 3.3125-2.4414 3.3125-4.5742 0-2.6719-2.1758-4.8477-4.8477-4.8477s-4.8477 2.1758-4.8477 4.8477c0 2.1328 1.3945 3.9297 3.3125 4.5742v20.816h-3.0508c-0.92187-8.1055-7.8164-14.426-16.164-14.426l-20.219 0.003906c-0.84766 0-1.5312 0.6875-1.5312 1.5312 0 0.84766 0.6875 1.5312 1.5312 1.5312h20.227c7.2852 0 13.211 5.9258 13.211 13.211v13.82c0 7.2852-5.9258 13.211-13.211 13.211l-24.191 0.007813c-7.2852 0-13.211-5.9258-13.211-13.211v-13.824c0-3.5938 1.418-6.957 3.9922-9.4648 0.60547-0.58984 0.61719-1.5625 0.027344-2.168s-1.5625-0.61719-2.168-0.027344c-2.7266 2.6562-4.3906 6.0859-4.8086 9.8086h-3.0508v-8.543c0-0.84766-0.6875-1.5312-1.5312-1.5312-0.84766 0-1.5312 0.6875-1.5312 1.5312v8.543h-1.5312c-1.7773 0-3.2188 1.4453-3.2188 3.2188v11.09c0 1.7773 1.4453 3.2188 3.2188 3.2188h7.6445c0.92187 8.1055 7.8164 14.426 16.164 14.426h24.188c8.3477 0 15.238-6.3203 16.164-14.426h3.0508v17.148c0 3.1719-2.582 5.7539-5.7539 5.7539h-19.188l0.007812-0.80469c0-1.4062-1.1445-2.5508-2.5508-2.5508h-7.6367c-1.4062 0-2.5508 1.1445-2.5508 2.5508v4.8711c0 1.4062 1.1445 2.5508 2.5508 2.5508h7.6367c1.4062 0 2.5508-1.1445 2.5508-2.5508v-1h19.188c4.8633 0 8.8164-3.957 8.8164-8.8164v-17.152h1.5312c1.7773 0 3.2188-1.4453 3.2188-3.2188v-11.09c0-1.7734-1.4453-3.2188-3.2188-3.2188zm-3.0625-27.176c0.98047 0 1.7812 0.80078 1.7812 1.7812 0 0.98047-0.80078 1.7812-1.7812 1.7812-0.98047 0-1.7812-0.80078-1.7812-1.7812 0-0.98047 0.79688-1.7812 1.7812-1.7812zm-68.902 41.484v-11.09c0-0.085937 0.070313-0.15625 0.15625-0.15625h7.5312v11.398h-7.5312c-0.085937 0-0.15625-0.070312-0.15625-0.15234zm39.363 29.672h-6.6055v-3.8438h6.6055zm32.754-29.672c0 0.085937-0.070312 0.15625-0.15625 0.15625h-7.5312v-11.402h7.5312c0.085938 0 0.15625 0.070313 0.15625 0.15625z"/>
 <path d="m70.84 54.387c0-4.1094-3.3438-7.4531-7.4531-7.4531s-7.4531 3.3438-7.4531 7.4531 3.3438 7.4531 7.4531 7.4531 7.4531-3.3438 7.4531-7.4531zm-11.844 0c0-2.4219 1.9688-4.3906 4.3906-4.3906s4.3906 1.9688 4.3906 4.3906-1.9688 4.3906-4.3906 4.3906-4.3906-1.9688-4.3906-4.3906z"/>
 <path d="m42.875 46.934c-4.1094 0-7.4531 3.3438-7.4531 7.4531s3.3438 7.4531 7.4531 7.4531 7.4531-3.3438 7.4531-7.4531-3.3438-7.4531-7.4531-7.4531zm0 11.844c-2.4219 0-4.3906-1.9688-4.3906-4.3906s1.9688-4.3906 4.3906-4.3906 4.3906 1.9688 4.3906 4.3906-1.9688 4.3906-4.3906 4.3906z"/>
 <path d="m43.469 69.969c0 0.84766 0.6875 1.5312 1.5312 1.5312h16.262c0.84766 0 1.5312-0.6875 1.5312-1.5312 0-0.84766-0.6875-1.5312-1.5312-1.5312h-16.262c-0.84766 0-1.5312 0.68359-1.5312 1.5312z"/>
 <path d="m30.074 36.254 9.957 6.918c0.26172 0.18359 0.57031 0.27344 0.875 0.27344 0.32422 0 0.64844-0.10156 0.91797-0.30859 0.52734-0.39844 0.74219-1.0859 0.53125-1.7148l-2.957-8.8047c4.4883-3.2109 7.1328-8.0469 7.1328-13.137 0-9.3633-8.6992-16.98-19.391-16.98-10.695 0-19.395 7.6172-19.395 16.977 0 9.3594 8.6992 16.977 19.395 16.977 0.95312 0 1.9375-0.066406 2.9336-0.19922zm-19.262-16.777c0-7.6719 7.3242-13.914 16.328-13.914s16.328 6.2422 16.328 13.914c0 4.4023-2.5078 8.5938-6.707 11.219-0.60156 0.375-0.86719 1.1133-0.64062 1.7891l1.8555 5.5312-6.6562-4.625c-0.25781-0.17969-0.5625-0.27344-0.875-0.27344-0.082031 0-0.16406 0.007812-0.24609 0.019531-1.043 0.16797-2.0742 0.25781-3.0625 0.25781-9-0.003906-16.324-6.2461-16.324-13.918z"/>
 <path d="m21.137 17.492h12.008c0.84766 0 1.5312-0.6875 1.5312-1.5312 0-0.84766-0.6875-1.5312-1.5312-1.5312h-12.008c-0.84766 0-1.5312 0.6875-1.5312 1.5312 0 0.84766 0.68359 1.5312 1.5312 1.5312z"/>
 <path d="m34.676 22.973c0-0.84766-0.6875-1.5312-1.5312-1.5312l-12.008-0.003906c-0.84766 0-1.5312 0.6875-1.5312 1.5312 0 0.84766 0.6875 1.5312 1.5312 1.5312h12.008c0.84375 0.003906 1.5312-0.68359 1.5312-1.5273z"/>
<text x="0.0" y="117.5" font-size="5.0" font-weight="bold" font-family="Arbeit Regular, Helvetica, Arial-Unicode, Arial, Sans-serif" fill="#000000">Created by Vector Place</text><text x="0.0" y="122.5" font-size="5.0" font-weight="bold" font-family="Arbeit Regular, Helvetica, Arial-Unicode, Arial, Sans-serif" fill="#000000">from Noun Project</text></svg>