<svg xmlns="http://www.w3.org/2000/svg" version="1.1" viewBox="-5.0 -10.0 110.0 135.0">
 <path d="m8.2227 22.461h29.086c0.20703 0 0.40234-0.082032 0.54688-0.22656s0.22656-0.33984 0.22656-0.54297-0.082031-0.39844-0.22656-0.54297c-0.14453-0.14453-0.33984-0.22656-0.54688-0.22656h-29.09 0.003906c-0.42578 0.003906-0.76562 0.34766-0.76562 0.76953s0.33984 0.76562 0.76562 0.76953z"/>
 <path d="m8.2227 28.281h29.086c0.42578 0 0.76953-0.34375 0.76953-0.76562 0-0.42578-0.34375-0.76953-0.76953-0.76953h-29.09 0.003906c-0.42578 0-0.76953 0.34375-0.76953 0.76953 0 0.42188 0.34375 0.76562 0.76953 0.76562z"/>
 <path d="m51.605 34.105c0.20312 0 0.40234-0.082031 0.54688-0.22266 0.14453-0.14453 0.22266-0.34375 0.22266-0.54687 0-0.20313-0.078125-0.39844-0.22266-0.54297-0.14453-0.14453-0.34375-0.22656-0.54688-0.22656h-43.383c-0.42578 0.003906-0.76562 0.34766-0.76562 0.76953 0 0.42578 0.33984 0.76953 0.76562 0.76953z"/>
 <path d="m96.793 41.066c-3.5625-7.1055-15.535-3.4727-18.504-2.4453l-0.23828-0.47656v0.003907c-0.089843-0.18359-0.25-0.32031-0.44531-0.38672-0.19141-0.0625-0.40234-0.046875-0.58594 0.042969l-0.47656 0.23828-0.47656-0.94922c-0.47656-0.94531-1.6289-1.3281-2.5781-0.85547l-1.1562 0.57812c-0.45312 0.22656-0.80078 0.62891-0.96094 1.1133-0.16016 0.48047-0.12109 1.0117 0.10547 1.4648l0.47656 0.95312-0.47656 0.23828c-0.17969 0.089843-0.32031 0.25-0.38281 0.44531-0.066406 0.19141-0.050781 0.40234 0.042969 0.58594l0.23828 0.47656c-2.0469 1.3867-8.6641 6.2422-9.7109 11.703-1.1602 0.039063-2.3047 0.11719-3.4102 0.23828v-25.113c0-0.019531-0.007812-0.035156-0.011718-0.054687-0.003907-0.058594-0.015626-0.11719-0.03125-0.17188-0.011719-0.035156-0.023438-0.066406-0.039063-0.10156-0.03125-0.0625-0.070313-0.12109-0.11719-0.17188-0.011719-0.011719-0.015626-0.027344-0.023438-0.035156l-15.41-15.41c-0.007813-0.007812-0.015625-0.007812-0.023438-0.015624h0.003906c-0.058593-0.054688-0.12109-0.097657-0.19141-0.12891-0.035156-0.019531-0.070312-0.03125-0.10938-0.042969-0.046875-0.011718-0.097656-0.023437-0.14453-0.027343-0.023438-0.003907-0.046875-0.015625-0.070312-0.015625h-38.191c-0.42578 0-0.76953 0.34375-0.76953 0.76953v64.672c0 0.42188 0.34375 0.76562 0.76953 0.76562h44.168v3.1797c0 3.3594 7.5859 5.1172 15.07 5.1172 7.4922 0 15.07-1.7578 15.07-5.1172v-23.273c-0.039063-2.7344-5.1406-4.4102-11.098-4.918 2.3125-2.0312 4.8828-3.7578 7.6406-5.1289l0.23047 0.46094c0.089844 0.18359 0.25 0.32031 0.44531 0.38281 0.19141 0.066406 0.40234 0.050781 0.58594-0.042969l0.47656-0.23828 7.0078 13.965c0.32422 0.65234 0.99219 1.0625 1.7188 1.0586 0.29687 0 0.59375-0.066407 0.85937-0.20313l1.1523-0.57812c0.94922-0.47656 1.332-1.6289 0.85547-2.5781l-7.0039-13.965 0.47656-0.23828v-0.003907c0.18359-0.089843 0.32031-0.25 0.38672-0.44141 0.0625-0.19531 0.046875-0.40625-0.042969-0.58594l-0.23047-0.46094c9.5547-4.6172 14.152-3.2188 14.191-3.2031v-0.003906c0.29688 0.10156 0.62109 0.015625 0.82812-0.21875 0.20703-0.23438 0.25-0.57422 0.10938-0.85156zm-41.164-12.91h-12.785v-12.785zm-7.5664 49.262h-43.402v-63.137h36.648v14.645c0 0.20312 0.078125 0.39844 0.22266 0.54297s0.33984 0.22656 0.54297 0.22656h14.641v24.531c-1.0273 0.14453-2.043 0.34766-3.0508 0.60547v-3.1875c0.003907-0.20312-0.078124-0.39844-0.22266-0.54297-0.14453-0.14453-0.33984-0.22656-0.54297-0.22656h-8.625c-0.20313 0-0.39844 0.082031-0.54297 0.22656-0.14453 0.14453-0.22266 0.33984-0.22266 0.54297v8.5703h-7.0859v-4.4727c0-0.20313-0.082031-0.39844-0.22656-0.54297-0.14453-0.14453-0.33984-0.22266-0.54297-0.22266h-8.6211c-0.20312 0-0.39844 0.078126-0.54297 0.22266s-0.22266 0.33984-0.22266 0.54297v8.4219h-8.8711v-1.3711c0.11328-0.011719 0.23047-0.007813 0.33594-0.023438v0.003907c2.9062-0.36328 5.4414-2.1523 6.7578-4.7695 1.3164-2.6172 1.2383-5.7148-0.20312-8.2656l6.5-4.5938 7.707 3.2305c0.25391 0.10547 0.54297 0.070312 0.76172-0.09375l8.6641-6.5391-0.46484 1.0156v-0.003906c-0.17578 0.38672-0.007813 0.84375 0.37891 1.0195 0.38281 0.17578 0.83984 0.007812 1.0156-0.37891l1.7383-3.7852h0.003906c0.11719-0.25781 0.082031-0.55859-0.085938-0.78125-0.17188-0.22656-0.45312-0.33984-0.73047-0.29688l-4.1172 0.63672v-0.003907c-0.42188 0.066407-0.70703 0.45703-0.64453 0.87891 0.066406 0.41797 0.45703 0.70703 0.87891 0.64062l1.1055-0.17188-8.3164 6.2773-7.6914-3.2266c-0.24609-0.10156-0.52344-0.070312-0.74219 0.082031l-6.8281 4.8242c-1.8477-2.2539-4.6953-3.4414-7.5977-3.1758-2.9023 0.26172-5.4844 1.9492-6.8945 4.5-1.4102 2.5508-1.4648 5.6367-0.14453 8.2344 1.3164 2.6016 3.8398 4.375 6.7305 4.7461 0.11328 0.015624 0.23047 0.011718 0.34375 0.023437v1.3711l-1.0156-0.003907c-0.20312 0-0.39844 0.082032-0.54297 0.22656s-0.22656 0.33984-0.22656 0.54297v7.9688c0 0.92188 0.74609 1.668 1.668 1.668h1.7773c0.18359-0.003906 0.36719-0.035156 0.53906-0.097656 0.10937 0.0625 0.23437 0.09375 0.35547 0.097656h25.863c0.003906 0 0.007812-0.003906 0.015624-0.003906h3.7734zm-30.418-4.5156c0 0.074218-0.058593 0.12891-0.12891 0.12891h-1.7773c-0.074219 0-0.12891-0.054688-0.12891-0.12891v-4.9258h2.0352zm-2.1211-17.914c0.11719 0.16797 0.29687 0.27734 0.49609 0.3125 0.19922 0.035157 0.40625-0.011719 0.57422-0.12891l4.5508-3.2148c1.1094 2.3711 0.20312 5.1953-2.0781 6.4805s-5.168 0.60156-6.625-1.5742c-1.457-2.1758-0.99609-5.1055 1.0625-6.7227 2.0547-1.6211 5.0117-1.3867 6.7852 0.53906l-4.582 3.2383c-0.16797 0.11719-0.28125 0.29688-0.31641 0.49609-0.03125 0.20313 0.015625 0.40625 0.13281 0.57422zm1.1016-7.4609c-2.9336-0.007813-5.5156 1.9414-6.3125 4.7656s0.38281 5.832 2.8906 7.3594c2.5039 1.5312 5.7227 1.2031 7.8672-0.80078 2.1484-2 2.6953-5.1875 1.3477-7.793l0.60938-0.42969h-0.003906c1.1328 2.1055 1.1523 4.6328 0.054687 6.7578-1.0977 2.1211-3.1719 3.5664-5.543 3.8633-0.60547 0.078125-1.2188 0.078125-1.8242-0.003906-2.3789-0.29688-4.4531-1.7539-5.5469-3.8828-1.0977-2.1328-1.0664-4.668 0.074219-6.7734 1.1445-2.1055 3.25-3.5156 5.6367-3.7578 2.3828-0.24609 4.7344 0.69922 6.2812 2.5273l-0.60547 0.42578c-1.2344-1.4336-3.0312-2.2578-4.9258-2.2578zm1.0195 18.176v0.73438h-2.0352v-0.73438zm1.5352 7.1992v-7.1992h7.0859v7.332l-7.0859-0.003906zm8.6211-7.9688v-8.4219h7.0859v16.52h-7.0859zm8.6211-3.1836h7.0859v11.281h-7.0859zm11.641-2.875v14.156h-3.0195v-20.617h7.0859v2.8828c-2.4531 0.84375-4.0586 2.043-4.0664 3.5781zm28.602 23.262c0 1.4609-5.2734 3.582-13.531 3.582-8.2617 0-13.531-2.1211-13.531-3.582v-5.3633c0.011719 0.007812 0.027344 0.015624 0.039063 0.03125 0.14453 0.09375 0.29297 0.19141 0.45312 0.28516v-0.003906c0.035156 0.015624 0.066406 0.035156 0.097656 0.054687 0.13672 0.078125 0.29297 0.15234 0.44531 0.23047l0.09375 0.046875c0.007812 0 0.007812 0.007812 0.015625 0.007812 1.7109 0.75 3.5156 1.2617 5.3633 1.5273 2.3242 0.37109 4.6719 0.55469 7.0234 0.54688 4.7422 0 9.5195-0.70703 12.387-2.0742 0.039063-0.015625 0.070313-0.039062 0.10938-0.054687 0.15234-0.078125 0.30859-0.15234 0.44531-0.23047 0.03125-0.019531 0.0625-0.039063 0.097656-0.054687 0.16016-0.09375 0.30859-0.19141 0.45312-0.28516 0.015625-0.015625 0.03125-0.023437 0.039062-0.03125zm0-7.7461c0 1.4531-5.2734 3.5742-13.531 3.5742-1.6289 0-3.2578-0.089844-4.8789-0.26953-0.69141-0.078124-1.3516-0.16797-1.9688-0.27734-3.9648-0.68359-6.3945-1.8906-6.6562-2.8516h0.003906c-0.023437-0.054687-0.03125-0.11719-0.03125-0.17578v-5.3633l0.046876 0.023437c0.13672 0.10156 0.28516 0.19141 0.4375 0.28516 0.046874 0.023437 0.085937 0.039062 0.12109 0.0625 0.13672 0.078124 0.26953 0.14453 0.41406 0.21484l0.13672 0.070313 0.003907-0.003906c0.44531 0.21094 0.90234 0.39453 1.3672 0.55469 0.48438 0.16797 1 0.32422 1.5352 0.45312 1.0039 0.26172 2.0234 0.46484 3.0508 0.60547 0.5 0.078125 1.0156 0.14453 1.5352 0.19922h0.003906c1.6211 0.17187 3.25 0.25781 4.8789 0.25391 4.7344 0 9.5039-0.69922 12.371-2.0664l0.13672-0.070313c0.14453-0.070313 0.28516-0.13672 0.41406-0.21484 0.039062-0.023437 0.085937-0.039062 0.12109-0.0625 0.15234-0.09375 0.30078-0.18359 0.4375-0.28516l0.046875-0.023437zm0-7.7539c0 1.4609-5.2734 3.5742-13.531 3.5742-1.6289 0.003906-3.2578-0.085938-4.8789-0.26953-0.53906-0.054687-1.0547-0.12109-1.5352-0.20703h-0.003906c-1.0273-0.15625-2.0469-0.37109-3.0508-0.65234-0.51953-0.14062-1.0312-0.30859-1.5352-0.5-1.6289-0.62891-2.5273-1.3438-2.5273-1.9453v-5.3633c0.011719 0.007812 0.023438 0.015624 0.039063 0.023437 0.14453 0.10156 0.29297 0.19141 0.45312 0.29297 0.03125 0.015625 0.070312 0.03125 0.10156 0.046875 0.13672 0.085937 0.29297 0.16016 0.44531 0.23828 0.039063 0.015625 0.070313 0.039062 0.10938 0.054688l-0.003906-0.003907c0.44922 0.21484 0.91016 0.40234 1.3828 0.5625 0.47656 0.16797 0.99219 0.31641 1.5352 0.46094 0.94531 0.23828 1.9688 0.4375 3.0508 0.59766 0.5 0.078125 1.0156 0.14453 1.5352 0.19922h0.003906c1.6211 0.17188 3.25 0.25781 4.8789 0.25391 4.75 0 9.5273-0.70703 12.395-2.0742l0.09375-0.046875c0.16016-0.085937 0.31641-0.16016 0.46094-0.24609l0.09375-0.046874c0.16016-0.09375 0.30859-0.19141 0.45312-0.29297l-0.003906 0.003906c0.015625-0.007813 0.027344-0.015625 0.039062-0.023437zm0-7.7461c-0.011718 0.21094-0.097656 0.41016-0.23828 0.57031-0.070312 0.078124-0.14453 0.15234-0.22266 0.22266-0.03125 0.023437-0.046875 0.054687-0.078125 0.078125-0.10938 0.085937-0.23047 0.17578-0.35938 0.26172v-0.003907c-0.015625 0.019531-0.03125 0.03125-0.054687 0.039063-0.15234 0.10156-0.32422 0.19922-0.51563 0.30078h-0.007812c-2.1133 1.1055-6.3789 2.1055-12.059 2.1055h0.003906c-1.6289 0.003906-3.2578-0.085938-4.8789-0.26953-0.53906-0.054687-1.0469-0.12109-1.5352-0.20703h-0.003906c-1.0273-0.15625-2.0469-0.37109-3.0508-0.65234-0.57031-0.16016-1.082-0.33203-1.5352-0.50781-1.6289-0.62109-2.5195-1.3359-2.5273-1.9375 0-0.59766 0.89844-1.3125 2.5273-1.9453 0.45312-0.17578 0.96875-0.34766 1.5352-0.50781v0.003906c1.0039-0.28125 2.0234-0.5 3.0508-0.65625 0.49219-0.085937 1-0.15234 1.5352-0.20703 1.0156-0.11719 2.1055-0.19922 3.2656-0.23828h0.003906c0.011719 1.0586 0.26953 2.1016 0.75391 3.043 0.12891 0.25781 0.39453 0.42188 0.68359 0.42188h0.0625-0.003906c0.3125-0.019532 0.57812-0.23047 0.67188-0.52734 0.48047-1.0781 1.1523-2.0586 1.9805-2.8984 6.793 0.375 10.996 2.207 10.996 3.5117zm-11.641-5.0781c-0.46484 0.47656-0.90234 0.98047-1.3125 1.5039-0.22266 0.28516-0.41406 0.54688-0.57813 0.79297-0.046874-0.26562-0.070312-0.53125-0.070312-0.80078-0.003906-0.51562 0.058594-1.0312 0.18359-1.5352 1.082-4.5664 6.8086-8.8906 8.8203-10.289l1.9844 3.9492c-3.3281 1.6289-6.3789 3.7812-9.0273 6.3789zm21.703 8.2109v-0.003907c-0.03125 0.097657-0.10156 0.17969-0.19141 0.22266l-1.1523 0.57812-0.003906 0.003907c-0.089844 0.046875-0.19531 0.054687-0.29297 0.019531-0.097657-0.03125-0.17578-0.10156-0.22266-0.19141l-7.0039-13.965 1.8398-0.92188 7.0078 13.965v-0.003907c0.042969 0.09375 0.050781 0.19922 0.019531 0.29297zm-13.875-23.316c-0.046874-0.09375-0.054687-0.19922-0.023437-0.29297 0.03125-0.097656 0.10156-0.17969 0.19531-0.22266l1.1523-0.57812v-0.003906c0.054688-0.023437 0.10938-0.039063 0.16797-0.039063 0.14844 0 0.28125 0.082032 0.34766 0.21094l0.47656 0.95312-1.8398 0.92188zm3.1523 9.1914-3.1523-6.2812 0.47656-0.23828 3.2148-1.6133h0.003906l0.47656-0.23828 3.1523 6.2812-0.47656 0.23828-1.6094 0.80859zm4.9648-3.9375-1.6875-3.3633-0.29297-0.58203c2.7266-0.91016 11.688-3.5039 15.469 0.38281-2.3164-0.12109-6.7578 0.30078-13.488 3.5625z"/>
<text x="0.0" y="117.5" font-size="5.0" font-weight="bold" font-family="Arbeit Regular, Helvetica, Arial-Unicode, Arial, Sans-serif" fill="#000000">Created by nico bayu saputro</text><text x="0.0" y="122.5" font-size="5.0" font-weight="bold" font-family="Arbeit Regular, Helvetica, Arial-Unicode, Arial, Sans-serif" fill="#000000">from Noun Project</text></svg>