<svg xmlns="http://www.w3.org/2000/svg" xmlns:xlink="http://www.w3.org/1999/xlink" version="1.1" x="0px" y="0px" viewBox="0 0 100 125" style="enable-background:new 0 0 100 100;" xml:space="preserve"><path d="M30.1382217,59.1764832H16.7697964c-1.4914064,0-2.7043476,1.2129402-2.7043476,2.7043457v5.5599213  c0,1.4903641,1.2129412,2.7033081,2.7043476,2.7033081h13.3684254c1.4903622,0,2.7033043-1.212944,2.7033043-2.7033081v-5.5599213  C32.841526,60.3894234,31.6285839,59.1764832,30.1382217,59.1764832z M30.7055817,67.4407501  c0,0.3128815-0.2544785,0.5673599-0.5673599,0.5673599H16.7697964c-0.3139248,0-0.5684032-0.2544785-0.5684032-0.5673599v-5.5599213  c0-0.3139229,0.2544785-0.5684013,0.5684032-0.5684013h13.3684254c0.3128815,0,0.5673599,0.2544785,0.5673599,0.5684013V67.4407501z   M74.1722565,68.5400085c-5.4301758-0.063858-8.1158981,6.9125977-4.0121994,10.4753113  c0.0093002,3.4171143-0.7239761,7.7777786,4.0123291,8.0984344c4.7373505-0.3206177,4.002533-4.6856155,4.0120697-8.0994797  C82.2900009,75.4510803,79.5994797,68.4752808,74.1722565,68.5400085z M76.4782028,77.6532364  c-0.2701263,0.2023315-0.4296951,0.5193863-0.4296951,0.8562546v4.5920715c0,1.0345993-0.8416519,1.8762512-1.8762512,1.8762512  s-1.8762512-0.8416519-1.8762512-1.8762512V78.509491c0-0.3368683-0.1595688-0.6549683-0.4296951-0.8562546  c-2.9978409-2.1267319-1.349617-7.0432739,2.306076-6.9772263C77.8276901,70.6122437,79.476799,75.5244598,76.4782028,77.6532364z   M88.4042358,60.5416946h-1.0147781c0.0801163-4.7142677,0.4231796-10.6403351-3.0860672-14.3113098v-8.8857956  c0.0168152-2.8225746-2.4901047-4.9250145-5.2546005-4.6650772l3.5264435-20.7952118  c0.2560272-1.5536423-0.7948532-3.0387602-2.35392-3.3102961L31.7620811,0.3816967  c-1.5560684-0.2659501-3.0495605,0.7978503-3.3071671,2.353919L26.529644,14.1445484l-9.8943863,1.0093727  c-1.5369492,0.1152229-2.755353,1.6200581-2.5614386,3.146574c-0.0000267-0.0000191,0.3749113,3.6523609,0.3749113,3.6523609  c-4.0091858,0.0492325-9.1204262-0.9445076-9.5351086,4.654768c0.0000153-0.0001202,0.0000153,48.8919334,0.0000153,48.8919334  c0,2.572937,2.0931835,4.6661224,4.6650772,4.6661224h3.1968765c-6.7889996,6.1070786-3.2057514,17.9524765,5.8300266,19.3016357  c6.7577782,1.3490219,13.5134621-4.6248093,13.111618-11.4754028l5.8842735-4.195755  c0.6311989-0.3150711,0.6765976-2.6732254,0.8635559-3.238327l2.6855774,0.4526367  c0.5491257,0.1007614,1.1237411-0.2886353,1.2176323-0.8447876h10.8888321  c-0.8748016,9.3205185,6.0732956,17.6989212,15.602581,17.6725769c-0.0001755,0.0000687,10.6242676,0.0000687,10.6242676,0.0000687  c8.6032257,0,15.6024094-6.9991837,15.6024094-15.6013641V67.2238235  C95.0863647,63.5391083,92.0889511,60.5416946,88.4042358,60.5416946z M85.2535095,54.7231216v5.818573H80.822052  c-0.0540237-1.1943741,0.1569977-6.2923431-0.184021-7.3597641c-0.6298218-2.9385109-3.4666443-5.1616859-6.4668427-5.1116905  c-3.666954-0.000042-6.6508102,2.9838142-6.6508102,6.6507988v5.8206558h-4.4293747v-5.818573  C63.6884384,40.0124168,84.6972504,40.0415726,85.2535095,54.7231216z M78.6850662,54.7210388v5.8196106h-9.0277023v-5.8175278  C69.8201065,48.7706718,78.5257568,48.769062,78.6850662,54.7210388z M30.561655,3.0870872  c0.0667496-0.3952749,0.4422073-0.6726973,0.8479118-0.5986485l48.4498444,8.1912632  c0.4077911,0.07092,0.6747894,0.444293,0.6090775,0.8510399L76.8820801,32.679512h-6.1830826L68.669693,12.7280388  c-0.1647797-1.5644121-1.5717087-2.6949606-3.1444626-2.5614643l-36.7908096,3.748332L30.561655,3.0870872z M16.3599205,17.5401707  c0.3795853-0.6580029,48.8300133-4.9784594,49.3780098-5.2486382c0.4255753-0.0349035,0.7634888,0.2529488,0.8072968,0.6576099  c0,0,2.0060959,19.7303696,2.0060959,19.7303696H55.9593697c-0.6393242,0-1.2442322-0.2367477-1.7104263-0.6716576  c-2.0677605-1.9064846-7.5731239-6.9825993-9.5616875-8.8170261c-0.8719215-0.7919712-1.9896126-1.2399464-3.1611595-1.2379684  l-24.9299488-0.0000038C16.6391144,21.5633297,15.9500618,17.7690582,16.3599205,17.5401707z M41.2403336,73.9726944  c-0.1151276,0.6953812-0.6669464,3.9906006-0.7936783,4.7526855c-4.6821747-0.9322357-3.6010246-0.5392685-4.445015,3.5877151  l-6.0063019,4.2823181c-0.3076687,0.2200623-0.4766235,0.5871811-0.4432507,0.9647217  c0.2888947,3.248764-1.1305485,6.330658-3.7942219,8.2402802c-3.9331017,2.9175415-9.9493799,1.9117279-12.7050915-2.1422958  c-5.4838595-7.823494,3.0884762-17.629097,11.6037464-13.4183884l19.071228-13.5936966  c1.2080116,0.2025833,4.2678299,0.7158203,5.4358139,0.9125671l-0.7092018,4.2134857l-3.8751793,2.7645798  C43.7481728,74.3964233,42.0721321,74.1133194,41.2403336,73.9726944z M53.2571068,67.2196503v10.8100891H42.731739  l0.2649078-1.5936203l2.1015282,0.3556442c0.4220886-0.3004456,4.8896141-3.4894943,5.3148308-3.7931747  c0.0214195-0.1256485,1.1570053-6.8313065,1.2181549-7.1921234c-1.9171829-0.3210907-6.4543381-1.084671-8.4227943-1.4131851  c0,0-0.3449554,0.2458725-0.363987,0.2544708L24.3822269,77.8096771c-2.7043056-1.0789719-5.6453323-0.7506714-8.3432446,0.136467  c-2.0409336,0.3907394-4.3801212,0.0835953-6.460268,0.0835953c-1.394413,0-2.5291328-1.1347198-2.5291328-2.5301819V26.6075039  c0-1.3891964,1.1295052-2.5187035,2.5176611-2.5187035c3.716238,0.0179749,27.673645-0.0029907,31.9672318,0.0052395  c0.6273003-0.0000248,1.2335091,0.2378311,1.7043991,0.6675892c2.3796654,2.2012463,7.1839256,6.6194649,9.5656052,8.8210888  c0.8614616,0.7999153,1.9826241,1.240036,3.1590614,1.240036c0.0214806,0.0034447,21.8386383,0.0062447,21.8599091-0.0072556  c0.000145-0.000042,1.8148651-0.000042,1.8148651-0.000042c1.3944092,0,2.529129,1.1347198,2.529129,2.5291328v6.8458672  c-8.555809-6.5795059-21.2961884-0.3203659-21.2216835,10.5266075c-0.0000877-0.0001984-0.0000877,5.819416-0.0000877,5.819416  C56.9364662,60.1129608,53.2291641,63.0901985,53.2571068,67.2196503z M92.9504166,82.2369614  c0,7.4247055-6.0407181,13.4654236-13.4664612,13.4654236H68.8595123c-7.4257431,0-13.4664612-6.0407181-13.4664612-13.4654236  V67.2238235c0-2.5072327,2.0389519-4.5461845,4.5461807-4.5461845h28.465004c2.5072327,0,4.5461807,2.0389519,4.5461807,4.5461845  V82.2369614z M21.460947,82.3735886c-7.9451561-1.0686951-9.8569355,10.4059525-1.9991856,11.9729996  C27.4257507,95.4349442,29.3489265,83.9396515,21.460947,82.3735886z M24.3519821,89.020256  c-0.9293957,5.0918732-8.5417776,3.770546-7.7615242-1.3112335C17.5842266,82.6060562,25.0845337,83.889946,24.3519821,89.020256z"/><text x="0" y="115" fill="#000000" font-size="5px" font-weight="bold" font-family="'Helvetica Neue', Helvetica, Arial-Unicode, Arial, Sans-serif">Created by ahmadwil</text><text x="0" y="120" fill="#000000" font-size="5px" font-weight="bold" font-family="'Helvetica Neue', Helvetica, Arial-Unicode, Arial, Sans-serif">from the Noun Project</text></svg>